<svg id="visual" viewBox="0 0 900 600" width="900" height="600" xmlns="http://www.w3.org/2000/svg" xmlns:xlink="http://www.w3.org/1999/xlink" version="1.1"><rect x="0" y="0" width="900" height="600" fill="#101110"></rect><defs><linearGradient id="grad1_0" x1="33.3%" y1="100%" x2="100%" y2="0%"><stop offset="20%" stop-color="#101110" stop-opacity="1"></stop><stop offset="80%" stop-color="#101110" stop-opacity="1"></stop></linearGradient></defs><defs><linearGradient id="grad2_0" x1="0%" y1="100%" x2="66.7%" y2="0%"><stop offset="20%" stop-color="#101110" stop-opacity="1"></stop><stop offset="80%" stop-color="#101110" stop-opacity="1"></stop></linearGradient></defs><g transform="translate(900, 600)"><path d="M-297.5 0C-256 -32.3 -214.5 -64.5 -194.9 -112.5C-175.3 -160.5 -177.6 -224.2 -148.7 -257.6C-119.9 -291.1 -60 -294.3 0 -297.5L0 0Z" fill="#000000"></path></g><g transform="translate(0, 0)"><path d="M297.5 0C261.5 35.5 225.5 70.9 205.2 118.5C185 166.1 180.3 225.8 148.7 257.6C117.1 289.5 58.6 293.5 0 297.5L0 0Z" fill="#000000"></path></g></svg>