<!-- <svg id="visual" viewBox="0 0 900 600" width="900" height="600" xmlns="http://www.w3.org/2000/svg" xmlns:xlink="http://www.w3.org/1999/xlink" version="1.1"><rect x="0" y="0" width="900" height="600" fill="#101110"></rect><defs><linearGradient id="grad1_0" x1="33.3%" y1="100%" x2="100%" y2="0%"><stop offset="20%" stop-color="#101110" stop-opacity="1"></stop><stop offset="80%" stop-color="#101110" stop-opacity="1"></stop></linearGradient></defs><defs><linearGradient id="grad2_0" x1="0%" y1="100%" x2="66.7%" y2="0%"><stop offset="20%" stop-color="#101110" stop-opacity="1"></stop><stop offset="80%" stop-color="#101110" stop-opacity="1"></stop></linearGradient></defs><g transform="translate(900, 600)"><path d="M-297.5 0C-256 -32.3 -214.5 -64.5 -194.9 -112.5C-175.3 -160.5 -177.6 -224.2 -148.7 -257.6C-119.9 -291.1 -60 -294.3 0 -297.5L0 0Z" fill="#000000"></path></g><g transform="translate(0, 0)"><path d="M297.5 0C261.5 35.5 225.5 70.9 205.2 118.5C185 166.1 180.3 225.8 148.7 257.6C117.1 289.5 58.6 293.5 0 297.5L0 0Z" fill="#000000"></path></g></svg> -->
<!-- <svg id="visual" viewBox="0 0 900 600" width="900" height="600" xmlns="http://www.w3.org/2000/svg" xmlns:xlink="http://www.w3.org/1999/xlink" version="1.1"><rect x="0" y="0" width="900" height="600" fill="#000"></rect><defs><linearGradient id="grad1_0" x1="33.3%" y1="100%" x2="100%" y2="0%"><stop offset="20%" stop-color="#000000" stop-opacity="1"></stop><stop offset="80%" stop-color="#000000" stop-opacity="1"></stop></linearGradient></defs><defs><linearGradient id="grad2_0" x1="0%" y1="100%" x2="66.7%" y2="0%"><stop offset="20%" stop-color="#000000" stop-opacity="1"></stop><stop offset="80%" stop-color="#000000" stop-opacity="1"></stop></linearGradient></defs><g transform="translate(900, 600)"><path d="M-216.3 0C-186.3 -23.6 -156.3 -47.1 -142 -82C-127.8 -116.9 -129.2 -163.1 -108.2 -187.3C-87.1 -211.6 -43.6 -214 0 -216.3L0 0Z" fill="#101110"></path></g><g transform="translate(0, 0)"><path d="M216.3 0C216.2 47.5 216.2 95 187.3 108.2C158.5 121.4 101 100.3 65 112.6C29 124.9 14.5 170.6 0 216.3L0 0Z" fill="#101110"></path></g></svg> -->
<svg id="visual" viewBox="0 0 1400 450" width="1400" height="450" xmlns="http://www.w3.org/2000/svg" xmlns:xlink="http://www.w3.org/1999/xlink" version="1.1"><rect x="0" y="0" width="1400" height="450" fill="#000"></rect><defs><linearGradient id="grad1_0" x1="67.9%" y1="100%" x2="100%" y2="0%"><stop offset="-12.222222222222225%" stop-color="#000000" stop-opacity="1"></stop><stop offset="112.22222222222221%" stop-color="#000000" stop-opacity="1"></stop></linearGradient></defs><defs><linearGradient id="grad2_0" x1="0%" y1="100%" x2="32.1%" y2="0%"><stop offset="-12.222222222222225%" stop-color="#000000" stop-opacity="1"></stop><stop offset="112.22222222222221%" stop-color="#000000" stop-opacity="1"></stop></linearGradient></defs><g transform="translate(1400, 450)"><path d="M-180 0C-177.1 -34.6 -174.1 -69.1 -155.9 -90C-137.6 -110.9 -104 -118.1 -75.5 -130.8C-47 -143.5 -23.5 -161.7 0 -180L0 0Z" fill="#101110"></path></g><g transform="translate(0, 0)"><path d="M180 0C177.3 34.9 174.5 69.8 155.9 90C137.2 110.2 102.6 115.6 74 128.2C45.4 140.7 22.7 160.4 0 180L0 0Z" fill="#101110"></path></g></svg>
