<!-- <svg viewBox="0 0 200 200" xmlns="http://www.w3.org/2000/svg">
  <path fill="#FF0066" d="M45.6,-70.7C59.8,-61.8,72.6,-50.4,79.8,-36.1C87,-21.7,88.6,-4.4,84.9,11.3C81.1,26.9,72.2,40.8,61.5,53.4C50.8,66,38.4,77.3,25,77.9C11.6,78.5,-2.8,68.4,-18.1,63.2C-33.4,57.9,-49.6,57.5,-59.3,49.6C-69,41.7,-72.1,26.2,-67.5,13.8C-62.9,1.4,-50.5,-8,-44.5,-20C-38.5,-31.9,-38.8,-46.4,-32.4,-58.9C-26.1,-71.4,-13,-82,1.3,-84.1C15.7,-86.1,31.4,-79.7,45.6,-70.7Z" transform="translate(100 100)" />
</svg> -->

<svg width="388" height="349" viewBox="0 0 388 349" fill="none" xmlns="http://www.w3.org/2000/svg">
<g clip-path="url(#clip0_2022_17)">
<path d="M268.416 47.173C291.278 61.502 311.886 79.856 323.478 102.879C335.07 126.063 337.646 153.916 331.689 179.193C325.571 204.309 311.242 226.688 294.015 246.974C276.788 267.26 256.824 285.453 235.25 286.419C213.676 287.385 190.492 271.124 165.859 262.752C141.226 254.219 115.144 253.575 99.527 240.856C83.91 228.137 78.919 203.182 86.325 183.218C93.731 163.254 113.695 148.12 123.355 128.8C133.015 109.641 132.532 86.296 142.836 66.171C152.979 46.046 174.07 28.98 197.093 25.599C220.277 22.379 245.554 32.683 268.416 47.173Z" fill="black"/>
<ellipse cx="315.895" cy="79.6281" rx="40.1047" ry="41.2671" fill="black"/>
<ellipse cx="160.5" cy="250.5" rx="34.5" ry="35.5" fill="black"/>
<ellipse cx="77" cy="302.5" rx="11" ry="11.5" fill="black"/>
</g>
<ellipse cx="39.5" cy="46.5" rx="28.5" ry="29.5" fill="black"/>
<ellipse cx="11" cy="87.5" rx="11" ry="11.5" fill="black"/>
<ellipse cx="361.5" cy="321.5" rx="26.5" ry="27.5" fill="black"/>
<defs>
<clipPath id="clip0_2022_17">
<rect width="322" height="322" fill="white" transform="translate(34)"/>
</clipPath>
</defs>
</svg>
