<svg width="300" height="236" viewBox="0 0 300 236" fill="none" xmlns="http://www.w3.org/2000/svg">
<rect width="300" height="236" rx="43" fill="url(#paint0_linear_2020_102)"/>
<path d="M119.676 212.558C99.9425 212.211 83.0886 207.901 69.1142 199.629C55.1399 191.356 44.489 180.009 37.1616 165.586C29.9488 151.165 26.5025 134.612 26.8224 115.925C27.1462 97.019 31.2164 80.4877 39.0333 66.3313C46.9648 52.1769 58.0552 41.2117 72.3043 33.4358C86.5534 25.6598 103.373 21.9424 122.762 22.2834C139.512 22.5781 154.148 25.7492 166.668 31.797C179.189 37.8447 189.03 46.2093 196.192 56.8908C203.354 67.5722 207.157 80.0638 207.601 94.3655L157.349 93.4816C156.014 84.332 152.411 76.9018 146.541 71.191C140.673 65.3702 132.806 62.373 122.939 62.1995C110.548 61.9816 100.542 66.5885 92.9212 76.0204C85.3019 85.3423 81.3427 98.7419 81.0434 116.219C80.7422 133.806 84.1793 147.556 91.3544 157.468C98.6443 167.382 108.542 172.449 121.048 172.669C130.226 172.83 138.017 170.219 144.421 164.834C150.826 159.449 154.858 151.823 156.519 141.956L206.771 142.84C205.727 156.896 201.556 169.247 194.258 179.894C186.962 190.431 176.952 198.612 164.229 204.435C151.622 210.151 136.771 212.859 119.676 212.558Z" fill="#9E9E9E"/>
<path d="M108.818 200C89.0137 200 72.0305 195.994 57.8683 187.981C43.7061 179.968 32.8254 168.827 25.2261 154.558C17.742 140.289 14 123.824 14 105.165C14 86.2854 17.7996 69.7112 25.3989 55.4419C33.1132 41.1727 44.0515 30.0318 58.2137 22.0191C72.376 14.0064 89.1864 10 108.645 10C125.455 10 140.193 12.9087 152.859 18.7262C165.524 24.5436 175.541 32.721 182.91 43.2582C190.279 53.7955 194.309 66.1987 195 80.4679H144.569C143.072 71.3576 139.33 64.0035 133.343 58.4055C127.355 52.6979 119.411 49.844 109.509 49.844C97.0735 49.844 87.1139 54.6187 79.6298 64.1681C72.1457 73.6077 68.4036 87.0537 68.4036 104.506C68.4036 122.068 72.0881 135.734 79.4571 145.503C86.9412 155.272 96.9583 160.156 109.509 160.156C118.72 160.156 126.492 157.412 132.824 151.924C139.157 146.436 143.072 138.752 144.569 128.873H195C194.194 142.923 190.222 155.326 183.083 166.083C175.944 176.73 166.042 185.072 153.377 191.109C140.827 197.036 125.974 200 108.818 200Z" fill="white"/>
<path d="M95.0814 104.612C96.9155 104.612 98.192 104.246 98.911 103.512C99.63 102.764 99.9895 101.568 99.9895 99.9243V96.1827C99.9895 94.2165 100.261 92.6391 100.804 91.4506C101.347 90.2474 102.11 89.345 103.093 88.7434C104.091 88.1272 105.264 87.7163 106.614 87.5109C107.979 87.3055 109.468 87.2027 111.082 87.2027V92.331C109.175 92.3163 107.898 92.6831 107.253 93.4315C106.607 94.1651 106.284 95.3096 106.284 96.865V101.553C106.284 102.345 106.152 103.123 105.888 103.886C105.624 104.649 105.118 105.339 104.369 105.955C103.621 106.557 102.528 107.041 101.09 107.408V107.936C102.528 108.303 103.621 108.794 104.369 109.41C105.118 110.027 105.624 110.716 105.888 111.479C106.152 112.242 106.284 113.02 106.284 113.812V118.478C106.284 120.034 106.607 121.186 107.253 121.934C107.898 122.668 109.175 123.034 111.082 123.034V128.141C109.468 128.141 107.979 128.038 106.614 127.833C105.264 127.627 104.091 127.216 103.093 126.6C102.11 125.998 101.347 125.103 100.804 123.915C100.261 122.726 99.9895 121.142 99.9895 119.161V115.419C99.9895 113.776 99.63 112.587 98.911 111.854C98.192 111.105 96.9155 110.731 95.0814 110.731V104.612Z" fill="#9E9E9E"/>
<path d="M91.0814 101.612C92.9155 101.612 94.192 101.246 94.911 100.512C95.63 99.7636 95.9895 98.5677 95.9895 96.9243V93.1827C95.9895 91.2165 96.261 89.6391 96.8039 88.4506C97.3468 87.2474 98.1098 86.345 99.0929 85.7434C100.091 85.1272 101.264 84.7163 102.614 84.5109C103.979 84.3055 105.468 84.2027 107.082 84.2027V89.331C105.175 89.3163 103.898 89.6831 103.253 90.4315C102.607 91.1651 102.284 92.3096 102.284 93.865V98.553C102.284 99.3454 102.152 100.123 101.888 100.886C101.624 101.649 101.118 102.339 100.369 102.955C99.6211 103.557 98.5279 104.041 97.09 104.408V104.936C98.5279 105.303 99.6211 105.794 100.369 106.41C101.118 107.027 101.624 107.716 101.888 108.479C102.152 109.242 102.284 110.02 102.284 110.812V115.478C102.284 117.034 102.607 118.186 103.253 118.934C103.898 119.668 105.175 120.034 107.082 120.034V125.141C105.468 125.141 103.979 125.038 102.614 124.833C101.264 124.627 100.091 124.216 99.0929 123.6C98.1098 122.998 97.3468 122.103 96.8039 120.915C96.261 119.726 95.9895 118.142 95.9895 116.161V112.419C95.9895 110.776 95.63 109.587 94.911 108.854C94.192 108.105 92.9155 107.731 91.0814 107.731V101.612Z" fill="white"/>
<path d="M196.063 122.369L214.265 179.764H215.026L233.279 122.369H250.974L224.913 197.916H204.378L178.266 122.369H196.063Z" fill="#9E9E9E"/>
<path d="M248.862 202.61V194.144L268.753 175.714C271.275 173.267 273.198 171.144 274.521 169.346C275.845 167.548 276.507 165.55 276.507 163.352C276.507 160.905 275.695 158.97 274.072 157.546C272.474 156.123 270.451 155.411 268.003 155.411C265.431 155.411 263.371 156.185 261.823 157.733C260.299 159.257 259.538 161.355 259.538 164.027H248.337C248.337 160.356 249.174 157.184 250.847 154.512C252.52 151.815 254.83 149.73 257.777 148.256C260.749 146.783 264.183 146.046 268.078 146.046C272.074 146.046 275.558 146.758 278.53 148.181C281.501 149.58 283.811 151.528 285.46 154.025C287.108 156.497 287.932 159.357 287.932 162.603C287.932 164.701 287.507 166.774 286.658 168.822C285.834 170.844 284.373 173.104 282.276 175.602C280.178 178.099 277.206 181.096 273.36 184.592L265.231 192.571V192.983H288.681V202.61H248.862Z" fill="#9E9E9E"/>
<path d="M188.23 118.453L206.433 175.848H207.193L225.446 118.453H243.142L217.08 194H196.546L170.434 118.453H188.23Z" fill="white"/>
<path d="M241.029 198.694V190.228L260.92 171.798C263.442 169.35 265.365 167.228 266.689 165.43C268.013 163.632 268.674 161.634 268.674 159.436C268.674 156.989 267.863 155.053 266.239 153.63C264.641 152.206 262.618 151.495 260.171 151.495C257.599 151.495 255.538 152.269 253.99 153.817C252.467 155.341 251.705 157.438 251.705 160.11H240.505C240.505 156.439 241.341 153.268 243.014 150.596C244.688 147.899 246.998 145.813 249.944 144.34C252.916 142.867 256.35 142.13 260.246 142.13C264.242 142.13 267.725 142.842 270.697 144.265C273.669 145.664 275.979 147.611 277.627 150.109C279.275 152.581 280.099 155.44 280.099 158.687C280.099 160.785 279.675 162.857 278.826 164.905C278.002 166.928 276.541 169.188 274.443 171.685C272.345 174.183 269.374 177.18 265.528 180.676L257.399 188.655V189.067H280.849V198.694H241.029Z" fill="white"/>
<path d="M125.258 112.166L112 118.005V114.199L120.959 110.613V110.431L112 106.832V103L125.258 108.852V112.166Z" fill="#9E9E9E"/>
<path d="M136 118.85V120.85H123V118.85H136Z" fill="#9E9E9E"/>
<path d="M123.258 111.166L110 117.005V113.199L118.959 109.613V109.431L110 105.832V102L123.258 107.852V111.166Z" fill="white"/>
<path d="M133 117.85V119.85H120V117.85H133Z" fill="white"/>
<path d="M157.453 104.101C155.565 104.101 154.251 103.723 153.511 102.968C152.771 102.198 152.401 100.967 152.401 99.275V95.4233C152.401 93.3993 152.121 91.7756 151.562 90.5521C151.003 89.3135 150.218 88.3846 149.206 87.7653C148.179 87.1309 146.97 86.708 145.581 86.4965C144.176 86.285 142.643 86.1793 140.981 86.1793V91.4584C142.945 91.4433 144.259 91.8209 144.924 92.5912C145.588 93.3465 145.921 94.5246 145.921 96.1257V100.952C145.921 101.767 146.057 102.568 146.328 103.353C146.6 104.139 147.121 104.849 147.892 105.483C148.662 106.102 149.787 106.601 151.268 106.978V107.522C149.787 107.9 148.662 108.406 147.892 109.04C147.121 109.675 146.6 110.385 146.328 111.17C146.057 111.955 145.921 112.756 145.921 113.572V118.375C145.921 119.976 145.588 121.162 144.924 121.932C144.259 122.687 142.945 123.065 140.981 123.065V128.321C142.643 128.321 144.176 128.216 145.581 128.004C146.97 127.793 148.179 127.37 149.206 126.735C150.218 126.116 151.003 125.195 151.562 123.971C152.121 122.748 152.401 121.116 152.401 119.077V115.226C152.401 113.534 152.771 112.31 153.511 111.555C154.251 110.785 155.565 110.4 157.453 110.4V104.101Z" fill="#9E9E9E"/>
<path d="M153.453 101.101C151.565 101.101 150.251 100.723 149.511 99.9681C148.771 99.1978 148.401 97.9668 148.401 96.275V92.4233C148.401 90.3993 148.121 88.7756 147.562 87.5521C147.003 86.3135 146.218 85.3846 145.206 84.7653C144.179 84.1309 142.97 83.708 141.581 83.4965C140.176 83.285 138.643 83.1793 136.981 83.1793V88.4584C138.945 88.4433 140.259 88.8209 140.924 89.5912C141.588 90.3465 141.921 91.5246 141.921 93.1257V97.9517C141.921 98.7673 142.057 99.5679 142.328 100.353C142.6 101.139 143.121 101.849 143.892 102.483C144.662 103.102 145.787 103.601 147.268 103.978V104.522C145.787 104.9 144.662 105.406 143.892 106.04C143.121 106.675 142.6 107.385 142.328 108.17C142.057 108.955 141.921 109.756 141.921 110.572V115.375C141.921 116.976 141.588 118.162 140.924 118.932C140.259 119.687 138.945 120.065 136.981 120.065V125.321C138.643 125.321 140.176 125.216 141.581 125.004C142.97 124.793 144.179 124.37 145.206 123.735C146.218 123.116 147.003 122.195 147.562 120.971C148.121 119.748 148.401 118.116 148.401 116.077V112.226C148.401 110.534 148.771 109.31 149.511 108.555C150.251 107.785 151.565 107.4 153.453 107.4V101.101Z" fill="white"/>
<defs>
<linearGradient id="paint0_linear_2020_102" x1="0" y1="118" x2="300" y2="118" gradientUnits="userSpaceOnUse">
<stop/>
<stop offset="1" stop-color="#666666"/>
</linearGradient>
</defs>
</svg>
