<svg width="221" height="236" viewBox="0 0 221 236" fill="none" xmlns="http://www.w3.org/2000/svg">
<rect width="221" height="236" rx="43" fill="url(#paint0_linear_2018_34)"/>
<path d="M119.676 222.558C99.9425 222.211 83.0886 217.901 69.1142 209.629C55.1399 201.356 44.489 190.009 37.1616 175.586C29.9488 161.165 26.5025 144.612 26.8224 125.925C27.1462 107.019 31.2164 90.4877 39.0333 76.3313C46.9648 62.1769 58.0552 51.2117 72.3043 43.4358C86.5534 35.6598 103.373 31.9424 122.762 32.2834C139.512 32.5781 154.148 35.7492 166.668 41.797C179.189 47.8447 189.03 56.2093 196.192 66.8908C203.354 77.5722 207.157 90.0638 207.601 104.366L157.349 103.482C156.014 94.332 152.411 86.9018 146.541 81.191C140.673 75.3702 132.806 72.373 122.939 72.1995C110.548 71.9816 100.542 76.5885 92.9212 86.0204C85.3019 95.3423 81.3427 108.742 81.0434 126.219C80.7422 143.806 84.1793 157.556 91.3544 167.468C98.6443 177.382 108.542 182.449 121.048 182.669C130.226 182.83 138.017 180.219 144.421 174.834C150.826 169.449 154.858 161.823 156.519 151.956L206.771 152.84C205.727 166.896 201.556 179.247 194.258 189.894C186.962 200.431 176.952 208.612 164.229 214.435C151.622 220.151 136.771 222.859 119.676 222.558Z" fill="#9E9E9E"/>
<path d="M108.818 210C89.0137 210 72.0305 205.994 57.8683 197.981C43.7061 189.968 32.8254 178.827 25.2261 164.558C17.742 150.289 14 133.824 14 115.165C14 96.2854 17.7996 79.7112 25.3989 65.4419C33.1132 51.1727 44.0515 40.0318 58.2137 32.0191C72.376 24.0064 89.1864 20 108.645 20C125.455 20 140.193 22.9087 152.859 28.7262C165.524 34.5436 175.541 42.721 182.91 53.2582C190.279 63.7955 194.309 76.1987 195 90.4679H144.569C143.072 81.3576 139.33 74.0035 133.343 68.4055C127.355 62.6979 119.411 59.844 109.509 59.844C97.0735 59.844 87.1139 64.6187 79.6298 74.1681C72.1457 83.6077 68.4036 97.0537 68.4036 114.506C68.4036 132.068 72.0881 145.734 79.4571 155.503C86.9412 165.272 96.9583 170.156 109.509 170.156C118.72 170.156 126.492 167.412 132.824 161.924C139.157 156.436 143.072 148.752 144.569 138.873H195C194.194 152.923 190.222 165.326 183.083 176.083C175.944 186.73 166.042 195.072 153.377 201.109C140.827 207.036 125.974 210 108.818 210Z" fill="white"/>
<path d="M92.0814 112.362C93.9155 112.362 95.192 111.996 95.911 111.262C96.63 110.514 96.9895 109.318 96.9895 107.674V103.933C96.9895 101.966 97.261 100.389 97.8039 99.2006C98.3468 97.9974 99.1098 97.095 100.093 96.4934C101.091 95.8772 102.264 95.4663 103.614 95.2609C104.979 95.0555 106.468 94.9527 108.082 94.9527V100.081C106.175 100.066 104.898 100.433 104.253 101.181C103.607 101.915 103.284 103.06 103.284 104.615V109.303C103.284 110.095 103.152 110.873 102.888 111.636C102.624 112.399 102.118 113.089 101.369 113.705C100.621 114.307 99.5279 114.791 98.09 115.158V115.686C99.5279 116.053 100.621 116.544 101.369 117.16C102.118 117.777 102.624 118.466 102.888 119.229C103.152 119.992 103.284 120.77 103.284 121.562V126.228C103.284 127.784 103.607 128.936 104.253 129.684C104.898 130.418 106.175 130.784 108.082 130.784V135.891C106.468 135.891 104.979 135.788 103.614 135.583C102.264 135.377 101.091 134.966 100.093 134.35C99.1098 133.748 98.3468 132.853 97.8039 131.665C97.261 130.476 96.9895 128.892 96.9895 126.911V123.169C96.9895 121.526 96.63 120.337 95.911 119.604C95.192 118.855 93.9155 118.481 92.0814 118.481V112.362Z" fill="#9E9E9E"/>
<path d="M109.041 109.334L113.689 123.99H113.883L118.544 109.334H123.062L116.408 128.625H111.164L104.496 109.334H109.041Z" fill="#9E9E9E"/>
<path d="M122.523 130.25V128.088L127.602 123.382C128.246 122.757 128.737 122.215 129.075 121.756C129.413 121.297 129.582 120.787 129.582 120.226C129.582 119.601 129.375 119.107 128.96 118.743C128.552 118.38 128.036 118.198 127.411 118.198C126.754 118.198 126.228 118.396 125.832 118.791C125.443 119.18 125.249 119.716 125.249 120.398H122.389C122.389 119.46 122.603 118.651 123.03 117.968C123.457 117.28 124.047 116.747 124.799 116.371C125.558 115.995 126.435 115.807 127.43 115.807C128.45 115.807 129.34 115.988 130.098 116.352C130.857 116.709 131.447 117.206 131.868 117.844C132.289 118.475 132.499 119.205 132.499 120.034C132.499 120.57 132.391 121.099 132.174 121.622C131.964 122.139 131.591 122.716 131.055 123.353C130.519 123.991 129.761 124.756 128.778 125.649L126.703 127.687V127.792H132.691V130.25H122.523Z" fill="#9E9E9E"/>
<path d="M148.828 112.101C146.94 112.101 145.626 111.723 144.886 110.968C144.146 110.198 143.776 108.967 143.776 107.275V103.423C143.776 101.399 143.496 99.7756 142.937 98.5521C142.378 97.3135 141.593 96.3846 140.581 95.7653C139.554 95.1309 138.345 94.708 136.956 94.4965C135.551 94.285 134.018 94.1793 132.356 94.1793V99.4584C134.32 99.4433 135.634 99.8209 136.299 100.591C136.963 101.346 137.296 102.525 137.296 104.126V108.952C137.296 109.767 137.432 110.568 137.703 111.353C137.975 112.139 138.496 112.849 139.267 113.483C140.037 114.102 141.162 114.601 142.643 114.978V115.522C141.162 115.9 140.037 116.406 139.267 117.04C138.496 117.675 137.975 118.385 137.703 119.17C137.432 119.955 137.296 120.756 137.296 121.572V126.375C137.296 127.976 136.963 129.162 136.299 129.932C135.634 130.687 134.32 131.065 132.356 131.065V136.321C134.018 136.321 135.551 136.216 136.956 136.004C138.345 135.793 139.554 135.37 140.581 134.735C141.593 134.116 142.378 133.195 142.937 131.971C143.496 130.748 143.776 129.116 143.776 127.077V123.226C143.776 121.534 144.146 120.31 144.886 119.555C145.626 118.785 146.94 118.4 148.828 118.4V112.101Z" fill="#9E9E9E"/>
<path d="M90.0814 111.362C91.9155 111.362 93.192 110.996 93.911 110.262C94.63 109.514 94.9895 108.318 94.9895 106.674V102.933C94.9895 100.966 95.261 99.3891 95.8039 98.2006C96.3468 96.9974 97.1098 96.095 98.0929 95.4934C99.0906 94.8772 100.264 94.4663 101.614 94.2609C102.979 94.0555 104.468 93.9527 106.082 93.9527V99.081C104.175 99.0663 102.898 99.4331 102.253 100.181C101.607 100.915 101.284 102.06 101.284 103.615V108.303C101.284 109.095 101.152 109.873 100.888 110.636C100.624 111.399 100.118 112.089 99.3694 112.705C98.6211 113.307 97.5279 113.791 96.09 114.158V114.686C97.5279 115.053 98.6211 115.544 99.3694 116.16C100.118 116.777 100.624 117.466 100.888 118.229C101.152 118.992 101.284 119.77 101.284 120.562V125.228C101.284 126.784 101.607 127.936 102.253 128.684C102.898 129.418 104.175 129.784 106.082 129.784V134.891C104.468 134.891 102.979 134.788 101.614 134.583C100.264 134.377 99.0906 133.966 98.0929 133.35C97.1098 132.748 96.3468 131.853 95.8039 130.665C95.261 129.476 94.9895 127.892 94.9895 125.911V122.169C94.9895 120.526 94.63 119.337 93.911 118.604C93.192 117.855 91.9155 117.481 90.0814 117.481V111.362Z" fill="white"/>
<path d="M107.041 108.334L111.689 122.99H111.883L116.544 108.334H121.062L114.408 127.625H109.164L102.496 108.334H107.041Z" fill="white"/>
<path d="M120.523 129.25V127.088L125.602 122.382C126.246 121.757 126.737 121.215 127.075 120.756C127.413 120.297 127.582 119.787 127.582 119.226C127.582 118.601 127.375 118.107 126.96 117.743C126.552 117.38 126.036 117.198 125.411 117.198C124.754 117.198 124.228 117.396 123.832 117.791C123.443 118.18 123.249 118.716 123.249 119.398H120.389C120.389 118.46 120.603 117.651 121.03 116.968C121.457 116.28 122.047 115.747 122.799 115.371C123.558 114.995 124.435 114.807 125.43 114.807C126.45 114.807 127.34 114.988 128.098 115.352C128.857 115.709 129.447 116.206 129.868 116.844C130.289 117.475 130.499 118.205 130.499 119.034C130.499 119.57 130.391 120.099 130.174 120.622C129.964 121.139 129.591 121.716 129.055 122.353C128.519 122.991 127.761 123.756 126.778 124.649L124.703 126.687V126.792H130.691V129.25H120.523Z" fill="white"/>
<path d="M146.828 111.101C144.94 111.101 143.626 110.723 142.886 109.968C142.146 109.198 141.776 107.967 141.776 106.275V102.423C141.776 100.399 141.496 98.7756 140.937 97.5521C140.378 96.3135 139.593 95.3846 138.581 94.7653C137.554 94.1309 136.345 93.708 134.956 93.4965C133.551 93.285 132.018 93.1793 130.356 93.1793V98.4584C132.32 98.4433 133.634 98.8209 134.299 99.5912C134.963 100.346 135.296 101.525 135.296 103.126V107.952C135.296 108.767 135.432 109.568 135.703 110.353C135.975 111.139 136.496 111.849 137.267 112.483C138.037 113.102 139.162 113.601 140.643 113.978V114.522C139.162 114.9 138.037 115.406 137.267 116.04C136.496 116.675 135.975 117.385 135.703 118.17C135.432 118.955 135.296 119.756 135.296 120.572V125.375C135.296 126.976 134.963 128.162 134.299 128.932C133.634 129.687 132.32 130.065 130.356 130.065V135.321C132.018 135.321 133.551 135.216 134.956 135.004C136.345 134.793 137.554 134.37 138.581 133.735C139.593 133.116 140.378 132.195 140.937 130.971C141.496 129.748 141.776 128.116 141.776 126.077V122.226C141.776 120.534 142.146 119.31 142.886 118.555C143.626 117.785 144.94 117.4 146.828 117.4V111.101Z" fill="white"/>
<defs>
<linearGradient id="paint0_linear_2018_34" x1="0" y1="118" x2="221" y2="118" gradientUnits="userSpaceOnUse">
<stop/>
<stop offset="1" stop-color="#666666"/>
</linearGradient>
</defs>
</svg>
